<svg xmlns="http://www.w3.org/2000/svg" version="1.1" xmlns:xlink="http://www.w3.org/1999/xlink" xmlns:svgjs="http://svgjs.dev/svgjs" viewBox="0 0 800 800"><defs><linearGradient x1="50%" y1="0%" x2="50%" y2="100%" id="ffflurry-grad" gradientTransform="rotate(270)"><stop stop-color="hsl(225, 54%, 30%)" stop-opacity="1" offset="0%"></stop><stop stop-color="hsl(230, 55%, 50%)" stop-opacity="1" offset="45%"></stop><stop stop-color="hsl(230, 55%, 70%)" stop-opacity="1" offset="100%"></stop></linearGradient></defs><rect width="100%" height="100%" fill="hsl(225, 54%, 30%)"></rect><g fill="url(#ffflurry-grad)"><rect width="178" height="2" x="-63" y="495" rx="1" transform="rotate(45, 26, 496)" opacity="0.94"></rect><rect width="352" height="2" x="-55" y="450" rx="1" transform="rotate(45, 121, 451)" opacity="0.33"></rect><rect width="94" height="2" x="545" y="767" rx="1" transform="rotate(45, 592, 768)" opacity="0.75"></rect><rect width="533" height="2" x="60.5" y="539" rx="1" transform="rotate(45, 327, 540)" opacity="0.10"></rect><rect width="228" height="2" x="597" y="454" rx="1" transform="rotate(45, 711, 455)" opacity="0.71"></rect><rect width="124" height="2" x="235" y="260" rx="1" transform="rotate(45, 297, 261)" opacity="0.43"></rect><rect width="99" height="2" x="547.5" y="396" rx="1" transform="rotate(45, 597, 397)" opacity="0.45"></rect><rect width="247" height="2" x="517.5" y="517" rx="1" transform="rotate(45, 641, 518)" opacity="0.38"></rect><rect width="268" height="2" x="489" y="669" rx="1" transform="rotate(45, 623, 670)" opacity="0.12"></rect><rect width="251" height="2" x="642.5" y="526" rx="1" transform="rotate(45, 768, 527)" opacity="0.68"></rect><rect width="309" height="2" x="-1.5" y="667" rx="1" transform="rotate(45, 153, 668)" opacity="0.97"></rect><rect width="89" height="2" x="53.5" y="549" rx="1" transform="rotate(45, 98, 550)" opacity="0.18"></rect><rect width="61" height="2" x="79.5" y="397" rx="1" transform="rotate(45, 110, 398)" opacity="0.55"></rect><rect width="268" height="2" x="320" y="462" rx="1" transform="rotate(45, 454, 463)" opacity="0.46"></rect><rect width="49" height="2" x="-11.5" y="342" rx="1" transform="rotate(45, 13, 343)" opacity="0.23"></rect><rect width="114" height="2" x="42" y="681" rx="1" transform="rotate(45, 99, 682)" opacity="0.23"></rect><rect width="49" height="2" x="122.5" y="510" rx="1" transform="rotate(45, 147, 511)" opacity="0.18"></rect><rect width="240" height="2" x="471" y="206" rx="1" transform="rotate(45, 591, 207)" opacity="0.68"></rect><rect width="243" height="2" x="149.5" y="317" rx="1" transform="rotate(45, 271, 318)" opacity="0.47"></rect><rect width="97" height="2" x="715.5" y="50" rx="1" transform="rotate(45, 764, 51)" opacity="0.10"></rect><rect width="108" height="2" x="149" y="353" rx="1" transform="rotate(45, 203, 354)" opacity="0.42"></rect><rect width="319" height="2" x="58.5" y="39" rx="1" transform="rotate(45, 218, 40)" opacity="0.27"></rect><rect width="141" height="2" x="-32.5" y="293" rx="1" transform="rotate(45, 38, 294)" opacity="0.82"></rect><rect width="46" height="2" x="754" y="205" rx="1" transform="rotate(45, 777, 206)" opacity="0.69"></rect><rect width="37" height="2" x="739.5" y="150" rx="1" transform="rotate(45, 758, 151)" opacity="0.19"></rect><rect width="331" height="2" x="356.5" y="695" rx="1" transform="rotate(45, 522, 696)" opacity="0.31"></rect><rect width="260" height="2" x="199" y="682" rx="1" transform="rotate(45, 329, 683)" opacity="0.70"></rect><rect width="352" height="2" x="281" y="242" rx="1" transform="rotate(45, 457, 243)" opacity="0.82"></rect><rect width="66" height="2" x="717" y="453" rx="1" transform="rotate(45, 750, 454)" opacity="0.30"></rect><rect width="157" height="2" x="82.5" y="365" rx="1" transform="rotate(45, 161, 366)" opacity="0.35"></rect><rect width="461" height="2" x="424.5" y="266" rx="1" transform="rotate(45, 655, 267)" opacity="0.45"></rect><rect width="165" height="2" x="145.5" y="467" rx="1" transform="rotate(45, 228, 468)" opacity="0.66"></rect><rect width="41" height="2" x="664.5" y="708" rx="1" transform="rotate(45, 685, 709)" opacity="0.28"></rect><rect width="173" height="2" x="687.5" y="393" rx="1" transform="rotate(45, 774, 394)" opacity="0.74"></rect><rect width="193" height="2" x="448.5" y="742" rx="1" transform="rotate(45, 545, 743)" opacity="0.69"></rect><rect width="55" height="2" x="165.5" y="622" rx="1" transform="rotate(45, 193, 623)" opacity="0.34"></rect><rect width="232" height="2" x="585" y="664" rx="1" transform="rotate(45, 701, 665)" opacity="0.88"></rect><rect width="261" height="2" x="28.5" y="729" rx="1" transform="rotate(45, 159, 730)" opacity="0.35"></rect><rect width="361" height="2" x="323.5" y="28" rx="1" transform="rotate(45, 504, 29)" opacity="0.95"></rect><rect width="122" height="2" x="148" y="419" rx="1" transform="rotate(45, 209, 420)" opacity="0.84"></rect><rect width="462" height="2" x="122" y="220" rx="1" transform="rotate(45, 353, 221)" opacity="0.62"></rect><rect width="176" height="2" x="254" y="616" rx="1" transform="rotate(45, 342, 617)" opacity="0.15"></rect><rect width="204" height="2" x="309" y="526" rx="1" transform="rotate(45, 411, 527)" opacity="1.00"></rect><rect width="288" height="2" x="263" y="776" rx="1" transform="rotate(45, 407, 777)" opacity="0.33"></rect><rect width="73" height="2" x="-7.5" y="31" rx="1" transform="rotate(45, 29, 32)" opacity="0.90"></rect><rect width="186" height="2" x="597" y="511" rx="1" transform="rotate(45, 690, 512)" opacity="0.28"></rect><rect width="200" height="2" x="261" y="351" rx="1" transform="rotate(45, 361, 352)" opacity="0.41"></rect><rect width="242" height="2" x="171" y="476" rx="1" transform="rotate(45, 292, 477)" opacity="0.54"></rect><rect width="266" height="2" x="442" y="493" rx="1" transform="rotate(45, 575, 494)" opacity="0.72"></rect><rect width="356" height="2" x="295" y="671" rx="1" transform="rotate(45, 473, 672)" opacity="0.94"></rect><rect width="436" height="2" x="-22" y="275" rx="1" transform="rotate(45, 196, 276)" opacity="0.38"></rect><rect width="121" height="2" x="133.5" y="131" rx="1" transform="rotate(45, 194, 132)" opacity="0.63"></rect><rect width="508" height="2" x="-212" y="424" rx="1" transform="rotate(45, 42, 425)" opacity="0.97"></rect><rect width="168" height="2" x="162" y="733" rx="1" transform="rotate(45, 246, 734)" opacity="0.56"></rect><rect width="98" height="2" x="52" y="256" rx="1" transform="rotate(45, 101, 257)" opacity="0.57"></rect><rect width="543" height="2" x="6.5" y="171" rx="1" transform="rotate(45, 278, 172)" opacity="0.72"></rect><rect width="366" height="2" x="-72" y="608" rx="1" transform="rotate(45, 111, 609)" opacity="0.15"></rect><rect width="396" height="2" x="-125" y="191" rx="1" transform="rotate(45, 73, 192)" opacity="0.41"></rect><rect width="239" height="2" x="425.5" y="592" rx="1" transform="rotate(45, 545, 593)" opacity="0.98"></rect><rect width="172" height="2" x="408" y="384" rx="1" transform="rotate(45, 494, 385)" opacity="0.68"></rect><rect width="121" height="2" x="333.5" y="287" rx="1" transform="rotate(45, 394, 288)" opacity="0.35"></rect><rect width="389" height="2" x="571.5" y="269" rx="1" transform="rotate(45, 766, 270)" opacity="0.61"></rect><rect width="211" height="2" x="346.5" y="766" rx="1" transform="rotate(45, 452, 767)" opacity="0.48"></rect><rect width="238" height="2" x="84" y="690" rx="1" transform="rotate(45, 203, 691)" opacity="0.82"></rect><rect width="134" height="2" x="194" y="670" rx="1" transform="rotate(45, 261, 671)" opacity="0.24"></rect><rect width="128" height="2" x="520" y="700" rx="1" transform="rotate(45, 584, 701)" opacity="0.62"></rect><rect width="126" height="2" x="342" y="653" rx="1" transform="rotate(45, 405, 654)" opacity="0.39"></rect><rect width="57" height="2" x="-11.5" y="216" rx="1" transform="rotate(45, 17, 217)" opacity="0.90"></rect><rect width="116" height="2" x="218" y="19" rx="1" transform="rotate(45, 276, 20)" opacity="0.48"></rect><rect width="95" height="2" x="600.5" y="761" rx="1" transform="rotate(45, 648, 762)" opacity="0.60"></rect><rect width="204" height="2" x="608" y="764" rx="1" transform="rotate(45, 710, 765)" opacity="0.86"></rect><rect width="280" height="2" x="156" y="764" rx="1" transform="rotate(45, 296, 765)" opacity="0.91"></rect><rect width="40" height="2" x="361" y="484" rx="1" transform="rotate(45, 381, 485)" opacity="0.88"></rect><rect width="276" height="2" x="33" y="553" rx="1" transform="rotate(45, 171, 554)" opacity="0.15"></rect><rect width="366" height="2" x="363" y="644" rx="1" transform="rotate(45, 546, 645)" opacity="0.85"></rect><rect width="139" height="2" x="103.5" y="15" rx="1" transform="rotate(45, 173, 16)" opacity="0.31"></rect><rect width="350" height="2" x="358" y="276" rx="1" transform="rotate(45, 533, 277)" opacity="0.07"></rect><rect width="67" height="2" x="261.5" y="395" rx="1" transform="rotate(45, 295, 396)" opacity="0.66"></rect><rect width="376" height="2" x="580" y="755" rx="1" transform="rotate(45, 768, 756)" opacity="0.10"></rect><rect width="73" height="2" x="109.5" y="197" rx="1" transform="rotate(45, 146, 198)" opacity="0.86"></rect><rect width="144" height="2" x="356" y="390" rx="1" transform="rotate(45, 428, 391)" opacity="0.86"></rect><rect width="419" height="2" x="206.5" y="710" rx="1" transform="rotate(45, 416, 711)" opacity="0.32"></rect><rect width="420" height="2" x="120" y="103" rx="1" transform="rotate(45, 330, 104)" opacity="0.86"></rect><rect width="54" height="2" x="614" y="370" rx="1" transform="rotate(45, 641, 371)" opacity="0.81"></rect><rect width="523" height="2" x="167.5" y="179" rx="1" transform="rotate(45, 429, 180)" opacity="0.92"></rect><rect width="269" height="2" x="109.5" y="379" rx="1" transform="rotate(45, 244, 380)" opacity="0.29"></rect><rect width="175" height="2" x="-62.5" y="164" rx="1" transform="rotate(45, 25, 165)" opacity="0.59"></rect><rect width="298" height="2" x="555" y="312" rx="1" transform="rotate(45, 704, 313)" opacity="0.46"></rect><rect width="204" height="2" x="671" y="587" rx="1" transform="rotate(45, 773, 588)" opacity="0.91"></rect><rect width="153" height="2" x="603.5" y="43" rx="1" transform="rotate(45, 680, 44)" opacity="0.86"></rect><rect width="95" height="2" x="320.5" y="149" rx="1" transform="rotate(45, 368, 150)" opacity="0.74"></rect><rect width="396" height="2" x="44" y="524" rx="1" transform="rotate(45, 242, 525)" opacity="0.77"></rect><rect width="112" height="2" x="657" y="383" rx="1" transform="rotate(45, 713, 384)" opacity="0.62"></rect><rect width="107" height="2" x="-15.5" y="753" rx="1" transform="rotate(45, 38, 754)" opacity="0.55"></rect><rect width="138" height="2" x="503" y="544" rx="1" transform="rotate(45, 572, 545)" opacity="0.96"></rect><rect width="428" height="2" x="258" y="611" rx="1" transform="rotate(45, 472, 612)" opacity="0.64"></rect><rect width="373" height="2" x="-119.5" y="79" rx="1" transform="rotate(45, 67, 80)" opacity="0.15"></rect><rect width="130" height="2" x="150" y="201" rx="1" transform="rotate(45, 215, 202)" opacity="0.48"></rect><rect width="85" height="2" x="-16.5" y="618" rx="1" transform="rotate(45, 26, 619)" opacity="0.80"></rect><rect width="80" height="2" x="464" y="103" rx="1" transform="rotate(45, 504, 104)" opacity="0.73"></rect><rect width="81" height="2" x="15.5" y="565" rx="1" transform="rotate(45, 56, 566)" opacity="0.71"></rect><rect width="245" height="2" x="609.5" y="620" rx="1" transform="rotate(45, 732, 621)" opacity="0.28"></rect><rect width="370" height="2" x="283" y="313" rx="1" transform="rotate(45, 468, 314)" opacity="0.17"></rect><rect width="393" height="2" x="-41.5" y="68" rx="1" transform="rotate(45, 155, 69)" opacity="0.85"></rect><rect width="314" height="2" x="64" y="576" rx="1" transform="rotate(45, 221, 577)" opacity="0.33"></rect><rect width="473" height="2" x="132.5" y="31" rx="1" transform="rotate(45, 369, 32)" opacity="0.87"></rect><rect width="56" height="2" x="670" y="116" rx="1" transform="rotate(45, 698, 117)" opacity="0.80"></rect><rect width="279" height="2" x="586.5" y="539" rx="1" transform="rotate(45, 726, 540)" opacity="0.65"></rect><rect width="338" height="2" x="315" y="733" rx="1" transform="rotate(45, 484, 734)" opacity="0.62"></rect><rect width="111" height="2" x="559.5" y="453" rx="1" transform="rotate(45, 615, 454)" opacity="0.98"></rect><rect width="393" height="2" x="-83.5" y="127" rx="1" transform="rotate(45, 113, 128)" opacity="0.63"></rect><rect width="262" height="2" x="-92" y="248" rx="1" transform="rotate(45, 39, 249)" opacity="0.14"></rect><rect width="70" height="2" x="-6" y="114" rx="1" transform="rotate(45, 29, 115)" opacity="0.52"></rect><rect width="305" height="2" x="609.5" y="327" rx="1" transform="rotate(45, 762, 328)" opacity="0.54"></rect><rect width="284" height="2" x="21" y="778" rx="1" transform="rotate(45, 163, 779)" opacity="0.48"></rect><rect width="253" height="2" x="537.5" y="183" rx="1" transform="rotate(45, 664, 184)" opacity="0.73"></rect><rect width="434" height="2" x="282" y="528" rx="1" transform="rotate(45, 499, 529)" opacity="0.14"></rect><rect width="314" height="2" x="375" y="444" rx="1" transform="rotate(45, 532, 445)" opacity="0.55"></rect><rect width="246" height="2" x="657" y="478" rx="1" transform="rotate(45, 780, 479)" opacity="0.24"></rect><rect width="297" height="2" x="-42.5" y="348" rx="1" transform="rotate(45, 106, 349)" opacity="0.43"></rect><rect width="326" height="2" x="501" y="623" rx="1" transform="rotate(45, 664, 624)" opacity="0.94"></rect><rect width="266" height="2" x="145" y="598" rx="1" transform="rotate(45, 278, 599)" opacity="0.75"></rect><rect width="283" height="2" x="457.5" y="31" rx="1" transform="rotate(45, 599, 32)" opacity="0.13"></rect><rect width="530" height="2" x="249" y="183" rx="1" transform="rotate(45, 514, 184)" opacity="0.48"></rect><rect width="35" height="2" x="751.5" y="675" rx="1" transform="rotate(45, 769, 676)" opacity="0.42"></rect><rect width="86" height="2" x="-5" y="672" rx="1" transform="rotate(45, 38, 673)" opacity="0.32"></rect><rect width="117" height="2" x="609.5" y="437" rx="1" transform="rotate(45, 668, 438)" opacity="0.52"></rect><rect width="403" height="2" x="-117.5" y="491" rx="1" transform="rotate(45, 84, 492)" opacity="0.67"></rect><rect width="167" height="2" x="21.5" y="762" rx="1" transform="rotate(45, 105, 763)" opacity="0.39"></rect><rect width="104" height="2" x="565" y="591" rx="1" transform="rotate(45, 617, 592)" opacity="0.49"></rect><rect width="53" height="2" x="364.5" y="589" rx="1" transform="rotate(45, 391, 590)" opacity="0.26"></rect><rect width="176" height="2" x="629" y="232" rx="1" transform="rotate(45, 717, 233)" opacity="0.80"></rect><rect width="307" height="2" x="289.5" y="564" rx="1" transform="rotate(45, 443, 565)" opacity="0.89"></rect><rect width="109" height="2" x="-3.5" y="356" rx="1" transform="rotate(45, 51, 357)" opacity="0.28"></rect><rect width="189" height="2" x="499.5" y="110" rx="1" transform="rotate(45, 594, 111)" opacity="0.74"></rect><rect width="111" height="2" x="458.5" y="780" rx="1" transform="rotate(45, 514, 781)" opacity="0.93"></rect><rect width="33" height="2" x="3.5" y="568" rx="1" transform="rotate(45, 20, 569)" opacity="0.66"></rect><rect width="268" height="2" x="527" y="333" rx="1" transform="rotate(45, 661, 334)" opacity="0.45"></rect><rect width="269" height="2" x="552.5" y="574" rx="1" transform="rotate(45, 687, 575)" opacity="0.32"></rect><rect width="348" height="2" x="-45" y="303" rx="1" transform="rotate(45, 129, 304)" opacity="0.15"></rect><rect width="160" height="2" x="150" y="96" rx="1" transform="rotate(45, 230, 97)" opacity="0.95"></rect><rect width="29" height="2" x="267.5" y="72" rx="1" transform="rotate(45, 282, 73)" opacity="0.64"></rect><rect width="179" height="2" x="339.5" y="79" rx="1" transform="rotate(45, 429, 80)" opacity="0.96"></rect><rect width="177" height="2" x="268.5" y="751" rx="1" transform="rotate(45, 357, 752)" opacity="0.84"></rect><rect width="134" height="2" x="285" y="434" rx="1" transform="rotate(45, 352, 435)" opacity="0.50"></rect><rect width="268" height="2" x="-32" y="29" rx="1" transform="rotate(45, 102, 30)" opacity="0.15"></rect><rect width="117" height="2" x="490.5" y="355" rx="1" transform="rotate(45, 549, 356)" opacity="0.53"></rect><rect width="215" height="2" x="491.5" y="300" rx="1" transform="rotate(45, 599, 301)" opacity="0.18"></rect><rect width="332" height="2" x="4" y="449" rx="1" transform="rotate(45, 170, 450)" opacity="0.35"></rect><rect width="74" height="2" x="182" y="774" rx="1" transform="rotate(45, 219, 775)" opacity="0.57"></rect></g></svg>