<svg xmlns="http://www.w3.org/2000/svg" xmlns:xlink="http://www.w3.org/1999/xlink" width="1360" height="577" viewBox="0 0 1360 577">
    <defs>
        <linearGradient id="ysggt3djtb" x1="73.628%" x2="28.121%" y1="39.552%" y2="52.804%">
            <stop offset="0%" stop-color="#0096c7"/>
            <stop offset="100%" stop-color="#023e8a"/>
        </linearGradient>
        <linearGradient id="mh61b2phtc" x1="27.096%" x2="63.283%" y1="58.248%" y2="88.377%">
            <stop offset="0%" stop-color="#0096c7" stop-opacity="0"/>
            <stop offset="100%" stop-color="#0096c7"/>
        </linearGradient>
        <linearGradient id="ykgkt1vgfe" x1="43.015%" x2="40.751%" y1="60.09%" y2="-16.412%">
            <stop offset="0%" stop-color="#0096c7" stop-opacity="0"/>
            <stop offset="100%" stop-color="#0096c7"/>
        </linearGradient>
        <linearGradient id="82e0ozuazf" x1="35.956%" x2="10.601%" y1="55.309%" y2="32.896%">
            <stop offset="0%" stop-color="#0096c7" stop-opacity="0"/>
            <stop offset="100%" stop-color="#0096c7"/>
        </linearGradient>
        <circle id="v3v4r2kudg" cx="154.5" cy="114.5" r="104.5"/>
        <path id="ytmd2pf8ja" d="M0 0h1360v507c0 38.66-31.34 70-70 70H70c-38.66 0-70-31.34-70-70V0z"/>
    </defs>
    <g fill="none" fill-rule="evenodd">
        <g>
            <g transform="translate(-40.000000, 0.000000) translate(40.000000, 0.000000)">
                <mask id="tj83ai1d5d" fill="#fff">
                    <use xlink:href="#ytmd2pf8ja"/>
                </mask>
                <use fill="url(#ysggt3djtb)" xlink:href="#ytmd2pf8ja"/>
                <path fill="url(#mh61b2phtc)" d="M-20 -47L739 590.683 -20 590.683z" mask="url(#tj83ai1d5d)" transform="translate(359.500000, 271.841689) scale(1, -1) translate(-359.500000, -271.841689)"/>
                <path fill="url(#ykgkt1vgfe)" d="M197 -66L656 827.162 197 827.162z" mask="url(#tj83ai1d5d)" transform="translate(426.500000, 380.581141) scale(-1, 1) rotate(-90.000000) translate(-426.500000, -380.581141)"/>
                <path fill="url(#82e0ozuazf)" d="M403.027 -10L901.466 -10 1460 479.927 403.027 487.683z" mask="url(#tj83ai1d5d)" transform="translate(931.513396, 238.841689) scale(-1, 1) translate(-931.513396, -238.841689)"/>
                <g mask="url(#tj83ai1d5d)" opacity=".1">
                    <g>
                        <g fill="#F2F3F8" transform="translate(1136.000000, 271.000000) translate(101.000000, 0.000000)">
                            <circle cx="3.758" cy="3.758" r="3.758"/>
                            <circle cx="28.814" cy="3.758" r="3.758"/>
                            <circle cx="53.869" cy="3.758" r="3.758"/>
                            <circle cx="78.924" cy="3.758" r="3.758"/>
                            <circle cx="3.758" cy="28.814" r="3.758"/>
                            <circle cx="28.814" cy="28.814" r="3.758"/>
                            <circle cx="53.869" cy="28.814" r="3.758"/>
                            <circle cx="78.924" cy="28.814" r="3.758"/>
                            <circle cx="3.758" cy="53.869" r="3.758"/>
                            <circle cx="28.814" cy="53.869" r="3.758"/>
                            <circle cx="53.869" cy="53.869" r="3.758"/>
                            <circle cx="78.924" cy="53.869" r="3.758"/>
                            <circle cx="3.758" cy="78.924" r="3.758"/>
                            <circle cx="28.814" cy="78.924" r="3.758"/>
                            <circle cx="53.869" cy="78.924" r="3.758"/>
                            <circle cx="78.924" cy="78.924" r="3.758"/>
                        </g>
                        <g transform="translate(1136.000000, 271.000000) translate(1.000000, 0.000000)">
                            <circle cx="3.758" cy="3.758" r="3.758" fill="#F2F3F8"/>
                            <circle cx="28.814" cy="3.758" r="3.758" fill="#F2F3F8"/>
                            <circle cx="53.869" cy="3.758" r="3.758" fill="#F2F3F8"/>
                            <circle cx="78.924" cy="3.758" r="3.758" fill="#F2F3F8"/>
                            <circle cx="3.758" cy="28.814" r="3.758" fill="#F2F3F8"/>
                            <circle cx="28.814" cy="28.814" r="3.758" fill="#F2F3F8"/>
                            <circle cx="53.869" cy="28.814" r="3.758" fill="#F2F3F8"/>
                            <circle cx="78.924" cy="28.814" r="3.758" fill="#F2F3F8"/>
                            <circle cx="3.758" cy="53.869" r="3.758" fill="#2E204E"/>
                            <circle cx="28.814" cy="53.869" r="3.758" fill="#2E204E"/>
                            <circle cx="53.869" cy="53.869" r="3.758" fill="#F2F3F8"/>
                            <circle cx="78.924" cy="53.869" r="3.758" fill="#F2F3F8"/>
                            <circle cx="3.758" cy="78.924" r="3.758" fill="#2E204E"/>
                            <circle cx="28.814" cy="78.924" r="3.758" fill="#2E204E"/>
                            <circle cx="53.869" cy="78.924" r="3.758" fill="#F2F3F8"/>
                            <circle cx="78.924" cy="78.924" r="3.758" fill="#F2F3F8"/>
                        </g>
                        <g fill="#F2F3F8" transform="translate(1136.000000, 271.000000) translate(100.000000, 102.000000)">
                            <circle cx="3.758" cy="3.758" r="3.758"/>
                            <circle cx="28.814" cy="3.758" r="3.758"/>
                            <circle cx="53.869" cy="3.758" r="3.758"/>
                            <circle cx="78.924" cy="3.758" r="3.758"/>
                            <circle cx="3.758" cy="28.814" r="3.758"/>
                            <circle cx="28.814" cy="28.814" r="3.758"/>
                            <circle cx="53.869" cy="28.814" r="3.758"/>
                            <circle cx="78.924" cy="28.814" r="3.758"/>
                            <circle cx="3.758" cy="53.869" r="3.758"/>
                            <circle cx="28.814" cy="53.869" r="3.758"/>
                            <circle cx="53.869" cy="53.869" r="3.758"/>
                            <circle cx="78.924" cy="53.869" r="3.758"/>
                            <circle cx="3.758" cy="78.924" r="3.758"/>
                            <circle cx="28.814" cy="78.924" r="3.758"/>
                            <circle cx="53.869" cy="78.924" r="3.758"/>
                            <circle cx="78.924" cy="78.924" r="3.758"/>
                        </g>
                        <g transform="translate(1136.000000, 271.000000) translate(0.000000, 102.000000)">
                            <circle cx="3.758" cy="3.758" r="3.758" fill="#F2F3F8"/>
                            <circle cx="28.814" cy="3.758" r="3.758" fill="#F2F3F8"/>
                            <circle cx="53.869" cy="3.758" r="3.758" fill="#F2F3F8"/>
                            <circle cx="78.924" cy="3.758" r="3.758" fill="#F2F3F8"/>
                            <circle cx="3.758" cy="28.814" r="3.758" fill="#F2F3F8"/>
                            <circle cx="28.814" cy="28.814" r="3.758" fill="#F2F3F8"/>
                            <circle cx="53.869" cy="28.814" r="3.758" fill="#F2F3F8"/>
                            <circle cx="78.924" cy="28.814" r="3.758" fill="#F2F3F8"/>
                            <circle cx="3.758" cy="53.869" r="3.758" fill="#2E204E"/>
                            <circle cx="28.814" cy="53.869" r="3.758" fill="#2E204E"/>
                            <circle cx="53.869" cy="53.869" r="3.758" fill="#F2F3F8"/>
                            <circle cx="78.924" cy="53.869" r="3.758" fill="#F2F3F8"/>
                            <circle cx="3.758" cy="78.924" r="3.758" fill="#2E204E"/>
                            <circle cx="28.814" cy="78.924" r="3.758" fill="#2E204E"/>
                            <circle cx="53.869" cy="78.924" r="3.758" fill="#F2F3F8"/>
                            <circle cx="78.924" cy="78.924" r="3.758" fill="#F2F3F8"/>
                        </g>
                    </g>
                </g>
                <g mask="url(#tj83ai1d5d)" opacity=".1">
                    <g>
                        <g fill="#F2F3F8" transform="translate(1136.000000, 70.000000) translate(101.000000, 0.000000)">
                            <circle cx="3.758" cy="3.758" r="3.758"/>
                            <circle cx="28.814" cy="3.758" r="3.758"/>
                            <circle cx="53.869" cy="3.758" r="3.758"/>
                            <circle cx="78.924" cy="3.758" r="3.758"/>
                            <circle cx="3.758" cy="28.814" r="3.758"/>
                            <circle cx="28.814" cy="28.814" r="3.758"/>
                            <circle cx="53.869" cy="28.814" r="3.758"/>
                            <circle cx="78.924" cy="28.814" r="3.758"/>
                            <circle cx="3.758" cy="53.869" r="3.758"/>
                            <circle cx="28.814" cy="53.869" r="3.758"/>
                            <circle cx="53.869" cy="53.869" r="3.758"/>
                            <circle cx="78.924" cy="53.869" r="3.758"/>
                            <circle cx="3.758" cy="78.924" r="3.758"/>
                            <circle cx="28.814" cy="78.924" r="3.758"/>
                            <circle cx="53.869" cy="78.924" r="3.758"/>
                            <circle cx="78.924" cy="78.924" r="3.758"/>
                        </g>
                        <g transform="translate(1136.000000, 70.000000) translate(1.000000, 0.000000)">
                            <circle cx="3.758" cy="3.758" r="3.758" fill="#F2F3F8"/>
                            <circle cx="28.814" cy="3.758" r="3.758" fill="#F2F3F8"/>
                            <circle cx="53.869" cy="3.758" r="3.758" fill="#F2F3F8"/>
                            <circle cx="78.924" cy="3.758" r="3.758" fill="#F2F3F8"/>
                            <circle cx="3.758" cy="28.814" r="3.758" fill="#F2F3F8"/>
                            <circle cx="28.814" cy="28.814" r="3.758" fill="#F2F3F8"/>
                            <circle cx="53.869" cy="28.814" r="3.758" fill="#F2F3F8"/>
                            <circle cx="78.924" cy="28.814" r="3.758" fill="#F2F3F8"/>
                            <circle cx="3.758" cy="53.869" r="3.758" fill="#2E204E"/>
                            <circle cx="28.814" cy="53.869" r="3.758" fill="#2E204E"/>
                            <circle cx="53.869" cy="53.869" r="3.758" fill="#F2F3F8"/>
                            <circle cx="78.924" cy="53.869" r="3.758" fill="#F2F3F8"/>
                            <circle cx="3.758" cy="78.924" r="3.758" fill="#2E204E"/>
                            <circle cx="28.814" cy="78.924" r="3.758" fill="#2E204E"/>
                            <circle cx="53.869" cy="78.924" r="3.758" fill="#F2F3F8"/>
                            <circle cx="78.924" cy="78.924" r="3.758" fill="#F2F3F8"/>
                        </g>
                        <g fill="#F2F3F8" transform="translate(1136.000000, 70.000000) translate(100.000000, 102.000000)">
                            <circle cx="3.758" cy="3.758" r="3.758"/>
                            <circle cx="28.814" cy="3.758" r="3.758"/>
                            <circle cx="53.869" cy="3.758" r="3.758"/>
                            <circle cx="78.924" cy="3.758" r="3.758"/>
                            <circle cx="3.758" cy="28.814" r="3.758"/>
                            <circle cx="28.814" cy="28.814" r="3.758"/>
                            <circle cx="53.869" cy="28.814" r="3.758"/>
                            <circle cx="78.924" cy="28.814" r="3.758"/>
                            <circle cx="3.758" cy="53.869" r="3.758"/>
                            <circle cx="28.814" cy="53.869" r="3.758"/>
                            <circle cx="53.869" cy="53.869" r="3.758"/>
                            <circle cx="78.924" cy="53.869" r="3.758"/>
                            <circle cx="3.758" cy="78.924" r="3.758"/>
                            <circle cx="28.814" cy="78.924" r="3.758"/>
                            <circle cx="53.869" cy="78.924" r="3.758"/>
                            <circle cx="78.924" cy="78.924" r="3.758"/>
                        </g>
                        <g transform="translate(1136.000000, 70.000000) translate(0.000000, 102.000000)">
                            <circle cx="3.758" cy="3.758" r="3.758" fill="#F2F3F8"/>
                            <circle cx="28.814" cy="3.758" r="3.758" fill="#F2F3F8"/>
                            <circle cx="53.869" cy="3.758" r="3.758" fill="#F2F3F8"/>
                            <circle cx="78.924" cy="3.758" r="3.758" fill="#F2F3F8"/>
                            <circle cx="3.758" cy="28.814" r="3.758" fill="#F2F3F8"/>
                            <circle cx="28.814" cy="28.814" r="3.758" fill="#F2F3F8"/>
                            <circle cx="53.869" cy="28.814" r="3.758" fill="#F2F3F8"/>
                            <circle cx="78.924" cy="28.814" r="3.758" fill="#F2F3F8"/>
                            <circle cx="3.758" cy="53.869" r="3.758" fill="#2E204E"/>
                            <circle cx="28.814" cy="53.869" r="3.758" fill="#2E204E"/>
                            <circle cx="53.869" cy="53.869" r="3.758" fill="#F2F3F8"/>
                            <circle cx="78.924" cy="53.869" r="3.758" fill="#F2F3F8"/>
                            <circle cx="3.758" cy="78.924" r="3.758" fill="#2E204E"/>
                            <circle cx="28.814" cy="78.924" r="3.758" fill="#2E204E"/>
                            <circle cx="53.869" cy="78.924" r="3.758" fill="#F2F3F8"/>
                            <circle cx="78.924" cy="78.924" r="3.758" fill="#F2F3F8"/>
                        </g>
                    </g>
                </g>
                <g mask="url(#tj83ai1d5d)">
                    <g transform="translate(-102.000000, 124.000000)">
                        <mask id="cvaer3pafh" fill="#fff">
                            <use xlink:href="#v3v4r2kudg"/>
                        </mask>
                        <g fill="#F2F3F8" mask="url(#cvaer3pafh)" opacity=".1">
                            <g transform="translate(85.000000, 0.000000)">
                                <ellipse cx="24.286" cy="3.133" rx="3.168" ry="3.133"/>
                                <ellipse cx="45.404" cy="3.133" rx="3.168" ry="3.133"/>
                                <ellipse cx="66.522" cy="3.133" rx="3.168" ry="3.133"/>
                                <ellipse cx="24.286" cy="24.017" rx="3.168" ry="3.133"/>
                                <ellipse cx="45.404" cy="24.017" rx="3.168" ry="3.133"/>
                                <ellipse cx="66.522" cy="24.017" rx="3.168" ry="3.133"/>
                                <ellipse cx="24.286" cy="44.901" rx="3.168" ry="3.133"/>
                                <ellipse cx="45.404" cy="44.901" rx="3.168" ry="3.133"/>
                                <ellipse cx="66.522" cy="44.901" rx="3.168" ry="3.133"/>
                                <ellipse cx="24.286" cy="65.785" rx="3.168" ry="3.133"/>
                                <ellipse cx="45.404" cy="65.785" rx="3.168" ry="3.133"/>
                                <ellipse cx="66.522" cy="65.785" rx="3.168" ry="3.133"/>
                            </g>
                            <g transform="translate(84.000000, 85.000000)">
                                <ellipse cx="24.286" cy="3.133" rx="3.168" ry="3.133"/>
                                <ellipse cx="45.404" cy="3.133" rx="3.168" ry="3.133"/>
                                <ellipse cx="66.522" cy="3.133" rx="3.168" ry="3.133"/>
                                <ellipse cx="24.286" cy="24.017" rx="3.168" ry="3.133"/>
                                <ellipse cx="45.404" cy="24.017" rx="3.168" ry="3.133"/>
                                <ellipse cx="66.522" cy="24.017" rx="3.168" ry="3.133"/>
                                <ellipse cx="24.286" cy="44.901" rx="3.168" ry="3.133"/>
                                <ellipse cx="45.404" cy="44.901" rx="3.168" ry="3.133"/>
                                <ellipse cx="66.522" cy="44.901" rx="3.168" ry="3.133"/>
                                <ellipse cx="24.286" cy="65.785" rx="3.168" ry="3.133"/>
                                <ellipse cx="45.404" cy="65.785" rx="3.168" ry="3.133"/>
                                <ellipse cx="66.522" cy="65.785" rx="3.168" ry="3.133"/>
                            </g>
                        </g>
                        <g mask="url(#cvaer3pafh)" opacity=".1">
                            <g>
                                <g fill="#F2F3F8" transform="translate(245.500000, 77.000000) scale(-1, 1) translate(-245.500000, -77.000000) translate(168.000000, 0.000000) translate(85.000000, 0.000000)">
                                    <ellipse cx="3.168" cy="3.133" rx="3.168" ry="3.133"/>
                                    <ellipse cx="24.286" cy="3.133" rx="3.168" ry="3.133"/>
                                    <ellipse cx="45.404" cy="3.133" rx="3.168" ry="3.133"/>
                                    <ellipse cx="66.522" cy="3.133" rx="3.168" ry="3.133"/>
                                    <ellipse cx="3.168" cy="24.017" rx="3.168" ry="3.133"/>
                                    <ellipse cx="24.286" cy="24.017" rx="3.168" ry="3.133"/>
                                    <ellipse cx="45.404" cy="24.017" rx="3.168" ry="3.133"/>
                                    <ellipse cx="66.522" cy="24.017" rx="3.168" ry="3.133"/>
                                    <ellipse cx="3.168" cy="44.901" rx="3.168" ry="3.133"/>
                                    <ellipse cx="24.286" cy="44.901" rx="3.168" ry="3.133"/>
                                    <ellipse cx="45.404" cy="44.901" rx="3.168" ry="3.133"/>
                                    <ellipse cx="66.522" cy="44.901" rx="3.168" ry="3.133"/>
                                    <ellipse cx="3.168" cy="65.785" rx="3.168" ry="3.133"/>
                                    <ellipse cx="24.286" cy="65.785" rx="3.168" ry="3.133"/>
                                    <ellipse cx="45.404" cy="65.785" rx="3.168" ry="3.133"/>
                                    <ellipse cx="66.522" cy="65.785" rx="3.168" ry="3.133"/>
                                </g>
                                <g transform="translate(245.500000, 77.000000) scale(-1, 1) translate(-245.500000, -77.000000) translate(168.000000, 0.000000) translate(1.000000, 0.000000)">
                                    <ellipse cx="3.168" cy="3.133" fill="#F2F3F8" rx="3.168" ry="3.133"/>
                                    <ellipse cx="24.286" cy="3.133" fill="#F2F3F8" rx="3.168" ry="3.133"/>
                                    <ellipse cx="45.404" cy="3.133" fill="#F2F3F8" rx="3.168" ry="3.133"/>
                                    <ellipse cx="66.522" cy="3.133" fill="#F2F3F8" rx="3.168" ry="3.133"/>
                                    <ellipse cx="3.168" cy="24.017" fill="#F2F3F8" rx="3.168" ry="3.133"/>
                                    <ellipse cx="24.286" cy="24.017" fill="#F2F3F8" rx="3.168" ry="3.133"/>
                                    <ellipse cx="45.404" cy="24.017" fill="#F2F3F8" rx="3.168" ry="3.133"/>
                                    <ellipse cx="66.522" cy="24.017" fill="#F2F3F8" rx="3.168" ry="3.133"/>
                                    <ellipse cx="3.168" cy="44.901" fill="#2E204E" rx="3.168" ry="3.133"/>
                                    <ellipse cx="24.286" cy="44.901" fill="#2E204E" rx="3.168" ry="3.133"/>
                                    <ellipse cx="45.404" cy="44.901" fill="#F2F3F8" rx="3.168" ry="3.133"/>
                                    <ellipse cx="66.522" cy="44.901" fill="#F2F3F8" rx="3.168" ry="3.133"/>
                                    <ellipse cx="3.168" cy="65.785" fill="#2E204E" rx="3.168" ry="3.133"/>
                                    <ellipse cx="24.286" cy="65.785" fill="#2E204E" rx="3.168" ry="3.133"/>
                                    <ellipse cx="45.404" cy="65.785" fill="#F2F3F8" rx="3.168" ry="3.133"/>
                                    <ellipse cx="66.522" cy="65.785" fill="#F2F3F8" rx="3.168" ry="3.133"/>
                                </g>
                                <g fill="#F2F3F8" transform="translate(245.500000, 77.000000) scale(-1, 1) translate(-245.500000, -77.000000) translate(168.000000, 0.000000) translate(84.000000, 85.000000)">
                                    <ellipse cx="3.168" cy="3.133" rx="3.168" ry="3.133"/>
                                    <ellipse cx="24.286" cy="3.133" rx="3.168" ry="3.133"/>
                                    <ellipse cx="45.404" cy="3.133" rx="3.168" ry="3.133"/>
                                    <ellipse cx="66.522" cy="3.133" rx="3.168" ry="3.133"/>
                                    <ellipse cx="3.168" cy="24.017" rx="3.168" ry="3.133"/>
                                    <ellipse cx="24.286" cy="24.017" rx="3.168" ry="3.133"/>
                                    <ellipse cx="45.404" cy="24.017" rx="3.168" ry="3.133"/>
                                    <ellipse cx="66.522" cy="24.017" rx="3.168" ry="3.133"/>
                                    <ellipse cx="3.168" cy="44.901" rx="3.168" ry="3.133"/>
                                    <ellipse cx="24.286" cy="44.901" rx="3.168" ry="3.133"/>
                                    <ellipse cx="45.404" cy="44.901" rx="3.168" ry="3.133"/>
                                    <ellipse cx="66.522" cy="44.901" rx="3.168" ry="3.133"/>
                                    <ellipse cx="3.168" cy="65.785" rx="3.168" ry="3.133"/>
                                    <ellipse cx="24.286" cy="65.785" rx="3.168" ry="3.133"/>
                                    <ellipse cx="45.404" cy="65.785" rx="3.168" ry="3.133"/>
                                    <ellipse cx="66.522" cy="65.785" rx="3.168" ry="3.133"/>
                                </g>
                                <g transform="translate(245.500000, 77.000000) scale(-1, 1) translate(-245.500000, -77.000000) translate(168.000000, 0.000000) translate(0.000000, 85.000000)">
                                    <ellipse cx="3.168" cy="3.133" fill="#F2F3F8" rx="3.168" ry="3.133"/>
                                    <ellipse cx="24.286" cy="3.133" fill="#F2F3F8" rx="3.168" ry="3.133"/>
                                    <ellipse cx="45.404" cy="3.133" fill="#F2F3F8" rx="3.168" ry="3.133"/>
                                    <ellipse cx="66.522" cy="3.133" fill="#F2F3F8" rx="3.168" ry="3.133"/>
                                    <ellipse cx="3.168" cy="24.017" fill="#F2F3F8" rx="3.168" ry="3.133"/>
                                    <ellipse cx="24.286" cy="24.017" fill="#F2F3F8" rx="3.168" ry="3.133"/>
                                    <ellipse cx="45.404" cy="24.017" fill="#F2F3F8" rx="3.168" ry="3.133"/>
                                    <ellipse cx="66.522" cy="24.017" fill="#F2F3F8" rx="3.168" ry="3.133"/>
                                    <ellipse cx="3.168" cy="44.901" fill="#2E204E" rx="3.168" ry="3.133"/>
                                    <ellipse cx="24.286" cy="44.901" fill="#2E204E" rx="3.168" ry="3.133"/>
                                    <ellipse cx="45.404" cy="44.901" fill="#F2F3F8" rx="3.168" ry="3.133"/>
                                    <ellipse cx="66.522" cy="44.901" fill="#F2F3F8" rx="3.168" ry="3.133"/>
                                    <ellipse cx="3.168" cy="65.785" fill="#2E204E" rx="3.168" ry="3.133"/>
                                    <ellipse cx="24.286" cy="65.785" fill="#2E204E" rx="3.168" ry="3.133"/>
                                    <ellipse cx="45.404" cy="65.785" fill="#F2F3F8" rx="3.168" ry="3.133"/>
                                    <ellipse cx="66.522" cy="65.785" fill="#F2F3F8" rx="3.168" ry="3.133"/>
                                </g>
                            </g>
                        </g>
                        <g mask="url(#cvaer3pafh)" opacity=".1">
                            <g fill="#F2F3F8">
                                <g transform="translate(1.000000, 164.000000) translate(85.000000, 0.000000)">
                                    <ellipse cx="24.286" cy="3.133" rx="3.168" ry="3.133"/>
                                    <ellipse cx="45.404" cy="3.133" rx="3.168" ry="3.133"/>
                                    <ellipse cx="66.522" cy="3.133" rx="3.168" ry="3.133"/>
                                    <ellipse cx="24.286" cy="24.017" rx="3.168" ry="3.133"/>
                                    <ellipse cx="45.404" cy="24.017" rx="3.168" ry="3.133"/>
                                    <ellipse cx="66.522" cy="24.017" rx="3.168" ry="3.133"/>
                                    <ellipse cx="24.286" cy="44.901" rx="3.168" ry="3.133"/>
                                    <ellipse cx="45.404" cy="44.901" rx="3.168" ry="3.133"/>
                                    <ellipse cx="66.522" cy="44.901" rx="3.168" ry="3.133"/>
                                    <ellipse cx="24.286" cy="65.785" rx="3.168" ry="3.133"/>
                                    <ellipse cx="45.404" cy="65.785" rx="3.168" ry="3.133"/>
                                    <ellipse cx="66.522" cy="65.785" rx="3.168" ry="3.133"/>
                                </g>
                                <g transform="translate(1.000000, 164.000000) translate(84.000000, 85.000000)">
                                    <ellipse cx="24.286" cy="3.133" rx="3.168" ry="3.133"/>
                                    <ellipse cx="45.404" cy="3.133" rx="3.168" ry="3.133"/>
                                    <ellipse cx="66.522" cy="3.133" rx="3.168" ry="3.133"/>
                                    <ellipse cx="24.286" cy="24.017" rx="3.168" ry="3.133"/>
                                    <ellipse cx="45.404" cy="24.017" rx="3.168" ry="3.133"/>
                                    <ellipse cx="66.522" cy="24.017" rx="3.168" ry="3.133"/>
                                    <ellipse cx="24.286" cy="44.901" rx="3.168" ry="3.133"/>
                                    <ellipse cx="45.404" cy="44.901" rx="3.168" ry="3.133"/>
                                    <ellipse cx="66.522" cy="44.901" rx="3.168" ry="3.133"/>
                                    <ellipse cx="24.286" cy="65.785" rx="3.168" ry="3.133"/>
                                    <ellipse cx="45.404" cy="65.785" rx="3.168" ry="3.133"/>
                                    <ellipse cx="66.522" cy="65.785" rx="3.168" ry="3.133"/>
                                </g>
                            </g>
                        </g>
                        <g mask="url(#cvaer3pafh)" opacity=".1">
                            <g>
                                <g fill="#F2F3F8" transform="translate(246.500000, 241.000000) scale(-1, 1) translate(-246.500000, -241.000000) translate(169.000000, 164.000000) translate(85.000000, 0.000000)">
                                    <ellipse cx="3.168" cy="3.133" rx="3.168" ry="3.133"/>
                                    <ellipse cx="24.286" cy="3.133" rx="3.168" ry="3.133"/>
                                    <ellipse cx="45.404" cy="3.133" rx="3.168" ry="3.133"/>
                                    <ellipse cx="66.522" cy="3.133" rx="3.168" ry="3.133"/>
                                    <ellipse cx="3.168" cy="24.017" rx="3.168" ry="3.133"/>
                                    <ellipse cx="24.286" cy="24.017" rx="3.168" ry="3.133"/>
                                    <ellipse cx="45.404" cy="24.017" rx="3.168" ry="3.133"/>
                                    <ellipse cx="66.522" cy="24.017" rx="3.168" ry="3.133"/>
                                    <ellipse cx="3.168" cy="44.901" rx="3.168" ry="3.133"/>
                                    <ellipse cx="24.286" cy="44.901" rx="3.168" ry="3.133"/>
                                    <ellipse cx="45.404" cy="44.901" rx="3.168" ry="3.133"/>
                                    <ellipse cx="66.522" cy="44.901" rx="3.168" ry="3.133"/>
                                    <ellipse cx="3.168" cy="65.785" rx="3.168" ry="3.133"/>
                                    <ellipse cx="24.286" cy="65.785" rx="3.168" ry="3.133"/>
                                    <ellipse cx="45.404" cy="65.785" rx="3.168" ry="3.133"/>
                                    <ellipse cx="66.522" cy="65.785" rx="3.168" ry="3.133"/>
                                </g>
                                <g transform="translate(246.500000, 241.000000) scale(-1, 1) translate(-246.500000, -241.000000) translate(169.000000, 164.000000) translate(1.000000, 0.000000)">
                                    <ellipse cx="3.168" cy="3.133" fill="#F2F3F8" rx="3.168" ry="3.133"/>
                                    <ellipse cx="24.286" cy="3.133" fill="#F2F3F8" rx="3.168" ry="3.133"/>
                                    <ellipse cx="45.404" cy="3.133" fill="#F2F3F8" rx="3.168" ry="3.133"/>
                                    <ellipse cx="66.522" cy="3.133" fill="#F2F3F8" rx="3.168" ry="3.133"/>
                                    <ellipse cx="3.168" cy="24.017" fill="#F2F3F8" rx="3.168" ry="3.133"/>
                                    <ellipse cx="24.286" cy="24.017" fill="#F2F3F8" rx="3.168" ry="3.133"/>
                                    <ellipse cx="45.404" cy="24.017" fill="#F2F3F8" rx="3.168" ry="3.133"/>
                                    <ellipse cx="66.522" cy="24.017" fill="#F2F3F8" rx="3.168" ry="3.133"/>
                                    <ellipse cx="3.168" cy="44.901" fill="#2E204E" rx="3.168" ry="3.133"/>
                                    <ellipse cx="24.286" cy="44.901" fill="#2E204E" rx="3.168" ry="3.133"/>
                                    <ellipse cx="45.404" cy="44.901" fill="#F2F3F8" rx="3.168" ry="3.133"/>
                                    <ellipse cx="66.522" cy="44.901" fill="#F2F3F8" rx="3.168" ry="3.133"/>
                                    <ellipse cx="3.168" cy="65.785" fill="#2E204E" rx="3.168" ry="3.133"/>
                                    <ellipse cx="24.286" cy="65.785" fill="#2E204E" rx="3.168" ry="3.133"/>
                                    <ellipse cx="45.404" cy="65.785" fill="#F2F3F8" rx="3.168" ry="3.133"/>
                                    <ellipse cx="66.522" cy="65.785" fill="#F2F3F8" rx="3.168" ry="3.133"/>
                                </g>
                                <g fill="#F2F3F8" transform="translate(246.500000, 241.000000) scale(-1, 1) translate(-246.500000, -241.000000) translate(169.000000, 164.000000) translate(84.000000, 85.000000)">
                                    <ellipse cx="3.168" cy="3.133" rx="3.168" ry="3.133"/>
                                    <ellipse cx="24.286" cy="3.133" rx="3.168" ry="3.133"/>
                                    <ellipse cx="45.404" cy="3.133" rx="3.168" ry="3.133"/>
                                    <ellipse cx="66.522" cy="3.133" rx="3.168" ry="3.133"/>
                                    <ellipse cx="3.168" cy="24.017" rx="3.168" ry="3.133"/>
                                    <ellipse cx="24.286" cy="24.017" rx="3.168" ry="3.133"/>
                                    <ellipse cx="45.404" cy="24.017" rx="3.168" ry="3.133"/>
                                    <ellipse cx="66.522" cy="24.017" rx="3.168" ry="3.133"/>
                                    <ellipse cx="3.168" cy="44.901" rx="3.168" ry="3.133"/>
                                    <ellipse cx="24.286" cy="44.901" rx="3.168" ry="3.133"/>
                                    <ellipse cx="45.404" cy="44.901" rx="3.168" ry="3.133"/>
                                    <ellipse cx="66.522" cy="44.901" rx="3.168" ry="3.133"/>
                                    <ellipse cx="3.168" cy="65.785" rx="3.168" ry="3.133"/>
                                    <ellipse cx="24.286" cy="65.785" rx="3.168" ry="3.133"/>
                                    <ellipse cx="45.404" cy="65.785" rx="3.168" ry="3.133"/>
                                    <ellipse cx="66.522" cy="65.785" rx="3.168" ry="3.133"/>
                                </g>
                                <g transform="translate(246.500000, 241.000000) scale(-1, 1) translate(-246.500000, -241.000000) translate(169.000000, 164.000000) translate(0.000000, 85.000000)">
                                    <ellipse cx="3.168" cy="3.133" fill="#F2F3F8" rx="3.168" ry="3.133"/>
                                    <ellipse cx="24.286" cy="3.133" fill="#F2F3F8" rx="3.168" ry="3.133"/>
                                    <ellipse cx="45.404" cy="3.133" fill="#F2F3F8" rx="3.168" ry="3.133"/>
                                    <ellipse cx="66.522" cy="3.133" fill="#F2F3F8" rx="3.168" ry="3.133"/>
                                    <ellipse cx="3.168" cy="24.017" fill="#F2F3F8" rx="3.168" ry="3.133"/>
                                    <ellipse cx="24.286" cy="24.017" fill="#F2F3F8" rx="3.168" ry="3.133"/>
                                    <ellipse cx="45.404" cy="24.017" fill="#F2F3F8" rx="3.168" ry="3.133"/>
                                    <ellipse cx="66.522" cy="24.017" fill="#F2F3F8" rx="3.168" ry="3.133"/>
                                    <ellipse cx="3.168" cy="44.901" fill="#2E204E" rx="3.168" ry="3.133"/>
                                    <ellipse cx="24.286" cy="44.901" fill="#2E204E" rx="3.168" ry="3.133"/>
                                    <ellipse cx="45.404" cy="44.901" fill="#F2F3F8" rx="3.168" ry="3.133"/>
                                    <ellipse cx="66.522" cy="44.901" fill="#F2F3F8" rx="3.168" ry="3.133"/>
                                    <ellipse cx="3.168" cy="65.785" fill="#2E204E" rx="3.168" ry="3.133"/>
                                    <ellipse cx="24.286" cy="65.785" fill="#2E204E" rx="3.168" ry="3.133"/>
                                    <ellipse cx="45.404" cy="65.785" fill="#F2F3F8" rx="3.168" ry="3.133"/>
                                    <ellipse cx="66.522" cy="65.785" fill="#F2F3F8" rx="3.168" ry="3.133"/>
                                </g>
                            </g>
                        </g>
                    </g>
                </g>
                <g mask="url(#tj83ai1d5d)">
                    <g>
                        <g>
                            <path fill="#0096c7" d="M68.18 5.238c-.495-1.071-1.755-1.541-2.83-1.047L63.1 5.245c-.505.24-1.085.371-1.744.371-2.208 0-2.902-1.425-2.923-1.473-.065-.161-1.755-3.998-6.62-3.998-4.084.014-6.433 3.75-6.53 3.912l-.085.14c-.041.08-.866 1.622-3.002 1.622-2.211 0-2.881-1.401-2.919-1.487l-.09-.168C39.1 4.009 36.97.362 32.63.348c-3.891 0-5.718 2.452-6.316 3.49l-.161.274-.069.158c-.03.055-.749 1.504-2.957 1.504-2.208 0-2.909-1.435-2.922-1.47-.076-.154-1.752-3.997-6.628-3.997-4.1.027-6.433 3.757-6.529 3.911l-.086.155c-.034.065-.882 1.604-3.008 1.604l-1.607-.02c-1.182 0-2.133.954-2.133 2.132 0 1.178.951 2.133 2.133 2.133 0 0 1.545.051 1.607.051l.003.003c4.18 0 6.09-2.98 6.488-3.722.192-.268 1.432-1.947 3.156-1.954 2.105 0 2.847 1.37 2.901 1.497.186.412 1.903 3.98 6.615 3.98 4.399 0 6.185-3.08 6.542-3.815l.1-.162c.247-.44 1.033-1.463 2.884-1.463 1.84.014 2.871 1.45 3.043 1.704.381.759 2.133 3.764 6.504 3.764 4.19 0 6.103-3.009 6.498-3.73.175-.254 1.394-1.927 3.156-1.937 2.156 0 2.874 1.44 2.888 1.47.069.165 1.762 4 6.614 4 .945 0 1.848-.15 2.675-.442l3.105-1.405c1.078-.487 1.545-1.755 1.054-2.823zM68.18 25.267c-.495-1.072-1.755-1.542-2.83-1.048l-2.25 1.054c-.505.24-1.085.371-1.744.371-2.208 0-2.902-1.425-2.923-1.47-.065-.16-1.755-3.997-6.62-3.997-4.084.014-6.433 3.75-6.53 3.915l-.085.14c-.041.076-.866 1.618-3.002 1.618-2.211 0-2.881-1.4-2.919-1.487l-.09-.168c-.088-.155-2.218-3.802-6.558-3.812-3.891 0-5.718 2.452-6.316 3.49l-.161.277-.069.155c-.03.055-.749 1.504-2.957 1.504-2.208 0-2.909-1.432-2.922-1.47-.076-.154-1.752-3.997-6.628-3.997-4.1.027-6.433 3.757-6.529 3.911l-.086.155c-.034.065-.882 1.604-3.008 1.604l-1.607-.02c-1.182 0-2.133.954-2.133 2.132 0 1.181.951 2.132 2.133 2.132 0 0 1.545.052 1.607.052l.003-.004c4.18 0 6.09-2.98 6.488-3.722.192-.268 1.432-1.947 3.156-1.954 2.105 0 2.847 1.37 2.901 1.497.186.412 1.903 3.98 6.615 3.98 4.399 0 6.185-3.08 6.542-3.815l.1-.162c.247-.44 1.033-1.463 2.884-1.463 1.84.014 2.871 1.45 3.043 1.704.381.759 2.133 3.764 6.504 3.764 4.19 0 6.103-3.009 6.498-3.73.175-.254 1.394-1.923 3.156-1.937 2.156 0 2.874 1.442 2.888 1.47.069.161 1.762 3.997 6.614 3.997.945 0 1.848-.147 2.675-.443l3.105-1.404c1.078-.484 1.545-1.748 1.054-2.82z" transform="translate(614.000000, 326.000000)"/>
                        </g>
                        <g>
                            <path fill="#0096c7" d="M67.967 5.093c-.495-1.072-1.755-1.542-2.83-1.047L62.887 5.1c-.505.24-1.085.37-1.744.37-2.208 0-2.902-1.424-2.923-1.473C58.155 3.836 56.465 0 51.6 0c-4.084.014-6.433 3.75-6.53 3.912l-.085.14c-.041.08-.866 1.621-3.002 1.621-2.211 0-2.881-1.4-2.919-1.487l-.09-.168c-.088-.154-2.218-3.802-6.558-3.815-3.891 0-5.718 2.452-6.316 3.489l-.161.275-.069.158c-.03.055-.749 1.504-2.957 1.504-2.208 0-2.909-1.436-2.922-1.47C19.915 4.004 18.239.16 13.363.16 9.263.19 6.93 3.918 6.834 4.073l-.086.155c-.034.065-.882 1.603-3.008 1.603l-1.607-.02C.95 5.81 0 6.765 0 7.943c0 1.178.951 2.133 2.133 2.133 0 0 1.545.052 1.607.052l.003.003c4.18 0 6.09-2.98 6.487-3.723.193-.268 1.433-1.947 3.156-1.954 2.106 0 2.847 1.37 2.902 1.497.186.413 1.903 3.98 6.615 3.98 4.399 0 6.185-3.08 6.542-3.815l.1-.161c.247-.44 1.033-1.463 2.884-1.463 1.84.014 2.871 1.45 3.043 1.703.381.76 2.132 3.764 6.504 3.764 4.19 0 6.103-3.008 6.498-3.73.175-.254 1.394-1.926 3.156-1.936 2.156 0 2.874 1.439 2.888 1.47.069.164 1.762 4 6.614 4 .945 0 1.848-.15 2.675-.443l3.105-1.404c1.078-.488 1.545-1.755 1.054-2.823zM67.967 25.121c-.495-1.071-1.755-1.542-2.83-1.047l-2.25 1.054c-.505.24-1.085.37-1.744.37-2.208 0-2.902-1.424-2.923-1.469-.065-.161-1.755-3.997-6.62-3.997-4.084.013-6.433 3.75-6.53 3.915l-.085.14c-.041.076-.866 1.618-3.002 1.618-2.211 0-2.881-1.401-2.919-1.487l-.09-.169c-.088-.154-2.218-3.801-6.558-3.811-3.891 0-5.718 2.452-6.316 3.489l-.161.278-.069.154c-.03.055-.749 1.505-2.957 1.505-2.208 0-2.909-1.432-2.922-1.47-.076-.155-1.752-3.998-6.628-3.998-4.1.028-6.433 3.757-6.529 3.912l-.086.154c-.034.066-.882 1.604-3.008 1.604l-1.607-.02C.95 25.846 0 26.8 0 27.978c0 1.182.951 2.133 2.133 2.133 0 0 1.545.051 1.607.051l.003-.003c4.18 0 6.09-2.98 6.487-3.723.193-.268 1.433-1.947 3.156-1.954 2.106 0 2.847 1.37 2.902 1.497.186.413 1.903 3.98 6.615 3.98 4.399 0 6.185-3.08 6.542-3.815l.1-.161c.247-.44 1.033-1.463 2.884-1.463 1.84.014 2.871 1.45 3.043 1.703.381.76 2.132 3.764 6.504 3.764 4.19 0 6.103-3.008 6.498-3.73.175-.254 1.394-1.923 3.156-1.936 2.156 0 2.874 1.442 2.888 1.47.069.16 1.762 3.997 6.614 3.997.945 0 1.848-.148 2.675-.443l3.105-1.405c1.078-.484 1.545-1.748 1.054-2.82v.001z" transform="translate(614.000000, 326.000000) translate(58.213038, 0.145499)"/>
                        </g>
                    </g>
                </g>
            </g>
        </g>
    </g>
</svg>