<svg xmlns="http://www.w3.org/2000/svg" xmlns:xlink="http://www.w3.org/1999/xlink" viewBox="-0.03 -1 196.58 240.35">
    <defs>
        <path id="3pd2bqhj2a" d="M0 0L197 0 197 240 0 240z"/>
        <path id="3iqf687h9c" d="M0 168.605L0 63.071 65.439 0 129.874 65.173 129.874 168.817z"/>
    </defs>
    <g fill="none" fill-rule="evenodd">
        <g>
            <g transform="translate(-273.000000, -126.000000) translate(273.000000, 126.000000)">
                <mask id="mhndacb7ib" fill="#fff">
                    <use xlink:href="#3pd2bqhj2a"/>
                </mask>
                <g mask="url(#mhndacb7ib)">
                    <g transform="translate(-0.031377, 0.090658)">
                        <g>
                            <mask id="mgsu2eu1od" fill="#fff">
                                <use xlink:href="#3iqf687h9c"/>
                            </mask>
                            <use fill="#002d64" xlink:href="#3iqf687h9c"/>
                            <g mask="url(#mgsu2eu1od)">
                                <g>
                                    <path fill="#0096c7" d="M0 1.351L65.439 66.812 0 66.812z" transform="translate(0.000000, -1.079210)"/>
                                    <path fill="#0077b6" d="M0 66.252L105.635 170.319 0 169.362z" transform="translate(0.000000, -1.079210)"/>
                                    <path fill="#0096c7" d="M64.162 66.54L65.439 0 129.874 66.252z" transform="translate(0.000000, -1.079210)"/>
                                </g>
                            </g>
                        </g>
                        <path fill="#00b4d8" d="M11.695 153.612L11.695 66.87 65.348 15.031 118.178 68.598 118.178 153.786z"/>
                        <path fill="#023e8a" d="M50.852 153.786L50.852 114.825 76.772 114.825 76.772 153.786z"/>
                        <ellipse cx="64.863" cy="65.173" fill="#002d64" rx="11.909" ry="11.913"/>
                    </g>
                </g>
                <g mask="url(#mhndacb7ib)">
                    <g>
                        <path fill="#002d64" d="M9.808 36.157L132.403 36.157 122.595 146.04 0 146.04z" transform="translate(64.131107, 93.295127)"/>
                        <path fill="#023e8a" d="M110.966 146.04L122.595 146.04 126.191 104.018 64.59 103.713z" transform="translate(64.131107, 93.295127)"/>
                        <path fill="#0077b6" d="M69.704 104.018L126.191 104.018 132.403 37.989z" transform="translate(64.131107, 93.295127)"/>
                        <path fill="#002d64" d="M9.808 36.301L132.403 36.301 132.115 0 9.808 0z" transform="translate(64.131107, 93.295127)"/>
                        <path fill="#0077b6" d="M132.115 0L132.403 37.717 68.163 37.717 104.884 0z" transform="translate(64.131107, 93.295127)"/>
                        <path fill="#00b4d8" d="M21.577 11.034H121.615V38.014H21.577zM23.538 47.685L65.711 47.685 62.279 83.495 20.106 83.495zM20.106 91.834L62.279 91.834 58.846 127.644 16.673 127.644zM75.028 47.685L117.201 47.685 113.769 83.495 71.596 83.495zM71.596 91.834L113.769 91.834 110.336 127.644 68.163 127.644z" transform="translate(64.131107, 93.295127)"/>
                        <g fill="#002d64">
                            <g>
                                <path d="M8.362 17.17c-1.442 0-2.55-1.134-2.474-2.532L6.544 2.53C6.62 1.133 7.85 0 9.292 0c1.442 0 2.55 1.133 2.474 2.531l-.656 12.107c-.076 1.398-1.306 2.531-2.748 2.531" transform="translate(64.131107, 93.295127) translate(32.365208, 58.231621) translate(0.245163, 0.000000)"/>
                                <path d="M.004 8.147C.079 6.687 1.3 5.503 2.73 5.503h12.39c1.43 0 2.53 1.184 2.454 2.644-.075 1.461-1.295 2.645-2.726 2.645H2.458c-1.43 0-2.53-1.184-2.454-2.645" transform="translate(64.131107, 93.295127) translate(32.365208, 58.231621) translate(0.245163, 0.000000)"/>
                            </g>
                            <g>
                                <path d="M.657 12.988c-.946-.997-.86-2.613.19-3.61l9.1-8.63c1.052-.997 2.67-.997 3.617 0 .946.996.86 2.612-.19 3.609l-9.1 8.63c-1.052.998-2.67.998-3.617 0" transform="translate(64.131107, 93.295127) translate(32.365208, 58.231621) translate(0.000000, 45.866410)"/>
                                <path d="M1.333.748C2.378-.25 3.988-.25 4.93.748l8.148 8.63c.94.997.856 2.613-.189 3.61-1.045.997-2.655.997-3.596 0L1.144 4.357c-.94-.997-.856-2.613.19-3.61" transform="translate(64.131107, 93.295127) translate(32.365208, 58.231621) translate(0.000000, 45.866410)"/>
                            </g>
                            <path d="M53.455 8.34c.073-1.355 1.265-2.453 2.662-2.453h12.098c1.397 0 2.47 1.098 2.396 2.452-.073 1.355-1.265 2.453-2.662 2.453H55.852c-1.397 0-2.47-1.098-2.397-2.453" transform="translate(64.131107, 93.295127) translate(32.365208, 58.231621)"/>
                            <g>
                                <path d="M.004 9.32c.073-1.354 1.265-2.452 2.662-2.452h12.097c1.397 0 2.47 1.098 2.397 2.452-.074 1.355-1.266 2.453-2.663 2.453H2.4c-1.397 0-2.47-1.098-2.396-2.453M11.765 2.698c-.078 1.49-1.347 2.698-2.834 2.698-1.488 0-2.63-1.208-2.552-2.698C6.457 1.208 7.726 0 9.213 0c1.488 0 2.63 1.208 2.552 2.698M10.785 15.943c-.078 1.49-1.348 2.698-2.835 2.698-1.488 0-2.63-1.208-2.552-2.698.078-1.49 1.347-2.698 2.835-2.698 1.487 0 2.63 1.208 2.552 2.698" transform="translate(64.131107, 93.295127) translate(32.365208, 58.231621) translate(50.018958, 40.960912)"/>
                            </g>
                        </g>
                        <path stroke="#002d64" stroke-dasharray="6.87" stroke-linecap="round" stroke-width="1.963" d="M35.825 31.424L115.73 31.424" transform="translate(64.131107, 93.295127)"/>
                        <path fill="#002d64" fill-rule="nonzero" d="M82.26 17.59l1.854-1.874H76.91l1.854 1.873h3.495zm1.497 4.03l.696-.713v-4.834l-1.855 1.855v2.515l1.16 1.178zm-1.266 1.267l.927-.927-.927-.928h-3.959l-.927.928.927.927h3.96zm-5.938 4.96l1.855-1.856v-2.515l-1.16-1.16-.695.696v4.834zm7.56.356l-1.854-1.855h-3.495l-1.854 1.855h7.204zM95.9 17.589l1.854-1.873H90.55l1.855 1.873h3.495zm-5.011 4.032l1.159-1.178v-2.515l-1.855-1.855v4.834l.696.714zm5.242 1.266l.928-.927-.928-.928h-3.958l-.928.928.928.927h3.958zm1.962 4.96v-4.835l-.695-.696-1.16 1.16v2.515l1.855 1.855zm-.339.356L95.9 26.348h-3.495l-1.855 1.855h7.204zm11.785-10.614l1.854-1.873h-7.204l1.855 1.873h3.495zm-5.01 4.032l1.158-1.178v-2.515l-1.854-1.855v4.834l.695.714zm5.242 1.266l.927-.927-.927-.928h-3.959l-.927.928.927.927h3.959zm-5.938 4.96l1.854-1.856v-2.515l-1.159-1.16-.695.696v4.834zm7.9 0v-4.835l-.696-.696-1.16 1.16v2.515l1.855 1.855zm-.34.356l-1.854-1.855h-3.495l-1.855 1.855h7.204z" transform="translate(64.131107, 93.295127)"/>
                    </g>
                </g>
            </g>
        </g>
    </g>
</svg>